# xmcd
#
# Track frame offsets:
#	150
#	13592
#	23105
#	36230
#	55252
#	70120
#	87637
#	106337
#	121315
#	138712
#	149462
#	162642
#	180390
#	191770
#	206970
#	222385
#	242727
#	258162
#	272760
#	291897
#	304387
#	319750
#	334435
#
# Disc length: 4691 seconds
#
# Revision: 3
# Processed by: cddbd v1.5.2PL0 Copyright (c) Steve Scherf et al.
# Submitted via: audiograbber 1.83.01
#
DISCID=71125117
DTITLE=Various Artist - CDXMAS 1008
DYEAR=1996
DGENRE=Christmas - Country
TTITLE0=Clay Walker - Blue Christmas
TTITLE1=Nashville Mandolin Ensemble - Carol Of The Bells
TTITLE2=John Berry - I'll Be Home For Christmas
TTITLE3=Collin Raye - It Could Happen Again
TTITLE4=Joe Diffie - Leroy The Redneck Reindeer
TTITLE5=Kenny Rogers and Wynonna - Mary, Did You Know
TTITLE6=Jimmy Bufett - Merry Christmas Alabama (Never Far From Home)
TTITLE7=The Bellamy Brothers - Old Hippie Christmas
TTITLE8=Gary Allen - Please Come Home For Christmas
TTITLE9=Jeff Foxworthy - Redneck 12 Days Of Christmas
TTITLE10=Alan Jackson - Rudolph The Red Nosed Reindeer
TTITLE11=The Tractors - Satna Cause Is Comin' (In A Boogie Woogie Choo Choo Tra
TTITLE11=in)
TTITLE12=Garth Brooks - Santa Looked A Lot Like Daddy
TTITLE13=Collin Raye - Silent Night
TTITLE14=Nashville Mandolin Ensemble - Sleigh Ride
TTITLE15=Collin Raye - The First Noel
TTITLE16=Shenandoah - There's A Way In The Manger
TTITLE17=Jeff Foxworthy - Twas The Night After Christmas
TTITLE18=The Bellamy Brothers - We All Get Crazy At Christmas
TTITLE19=Mark Chesnutt - What Child Is This
TTITLE20=Jeff Carson - White Christmas
TTITLE21=Joe Diffie - Wrap Me In Your Love
TTITLE22=Billy Thomas - Beneath The Christmas Tree
EXTD=
EXTT0=
EXTT1=
EXTT2=
EXTT3=
EXTT4=
EXTT5=
EXTT6=
EXTT7=
EXTT8=
EXTT9=
EXTT10=
EXTT11=
EXTT12=
EXTT13=
EXTT14=
EXTT15=
EXTT16=
EXTT17=
EXTT18=
EXTT19=
EXTT20=
EXTT21=
EXTT22=
PLAYORDER=
